<svg width="1156" height="1080" viewBox="0 0 1156 1080" fill="none" xmlns="http://www.w3.org/2000/svg">
<path d="M289 540H578L289 270V540Z" fill="#4FD8BD"/>
<path d="M0 540H289V270L0 540Z" fill="#72DDC8"/>
<path d="M289 540H0L289 810V540Z" fill="#5CF0D3"/>
<path d="M578 540H289V810L578 540Z" fill="#7AFDE3"/>
<path d="M578 540V270H289L578 540Z" fill="#A8EBDE"/>
<path d="M578 270V540L867 270H578Z" fill="#D9FFF7"/>
<path d="M578 270V0L289 270H578Z" fill="#A9DFD4"/>
<path d="M578 0V270H867L578 0Z" fill="#96D9CC"/>
<path d="M867 0H578L867 270V0Z" fill="#91D3D8"/>
<path d="M1156 0H867V270L1156 0Z" fill="#95E2ED"/>
<path d="M1156 270V0L867 270H1156Z" fill="#72CCD1"/>
<path d="M1156 540V270H867L1156 540Z" fill="#7CDCE1"/>
<path d="M578 540H867V270L578 540Z" fill="#A9DCDF"/>
<path d="M867 540H1156L867 270V540Z" fill="#A0CED0"/>
<path d="M867 810V540H578L867 810Z" fill="#B0ECEF"/>
<path d="M867 810L1156 540H867V810Z" fill="#D3EFF0"/>
<path d="M1156 810V540L867 810H1156Z" fill="#A7D1EF"/>
<path d="M1156 1080V810H867L1156 1080Z" fill="#CBE5F9"/>
<path d="M578 810V540L289 810H578Z" fill="#72DDD7"/>
<path d="M578 810H867L578 540V810Z" fill="#4FD0D8"/>
<path d="M578 1080L867 810H578V1080Z" fill="#95F7F1"/>
<path d="M578 1080V810H289L578 1080Z" fill="#7AEEE7"/>
<path d="M578 1080H867V810L578 1080Z" fill="#BDECFB"/>
<path d="M867 1080H1156L867 810V1080Z" fill="#B1DEFF"/>
<path d="M0 1080H289V810L0 1080Z" fill="#9FEFEB"/>
<path d="M289 1080H578L289 810V1080Z" fill="#4FD8D0"/>
<path d="M0 540V810H289L0 540Z" fill="#7BE0C2"/>
<path d="M0 810V1080L289 810H0Z" fill="#A9EAD6"/>
<path d="M578 0H289V270L578 0Z" fill="#E2FFF9"/>
<path d="M289 0H0L289 270V0Z" fill="#CCEEE7"/>
<path d="M0 0V270H289L0 0Z" fill="#C2F7EC"/>
<path d="M0 270V540L289 270H0Z" fill="#B6F0E4"/>
</svg>
